<?xml version="1.0" encoding="UTF-8"?>
<svg version="1.1" xmlns="http://www.w3.org/2000/svg" width="500" height="500">
<path d="M0 0 C7.39114188 6.33778296 14.51628629 12.80014656 20.63769531 20.40429688 C21.38277344 21.30019531 22.12785156 22.19609375 22.89550781 23.11914062 C50.59761794 57.55138722 62.35008633 101.24871842 58.17675781 145.02929688 C53.56230488 184.30690689 35.38748817 217.82042206 7.63769531 245.40429688 C7.1053125 245.95375977 6.57292969 246.50322266 6.02441406 247.06933594 C-20.01827587 273.73973644 -60.52359422 289.73074113 -97.56542969 290.60742188 C-145.23486664 291.14208298 -185.47550263 275.46425077 -220.98339844 243.76757812 C-252.27612847 212.68038327 -269.47748966 170.32779945 -269.73730469 126.40429688 C-269.66895034 114.84231362 -268.76010076 103.71465573 -266.36230469 92.40429688 C-266.20133301 91.62860352 -266.04036133 90.85291016 -265.87451172 90.05371094 C-260.73670518 66.1957313 -249.75623692 43.32600524 -234.36230469 24.40429688 C-233.90984375 23.84500488 -233.45738281 23.28571289 -232.99121094 22.70947266 C-209.29553269 -6.38837072 -177.01479259 -26.27512074 -140.36230469 -34.59570312 C-139.66331055 -34.75941406 -138.96431641 -34.923125 -138.24414062 -35.09179688 C-90.45825586 -45.80433426 -37.15847786 -31.3352983 0 0 Z " fill="#FEFEFD" transform="translate(355.3623046875,123.595703125)"/>
<path d="M0 0 C1.51787109 0.52787109 1.51787109 0.52787109 3.06640625 1.06640625 C9.90540092 3.65991737 15.68337361 6.94062973 21 12 C21.73734375 12.66386719 22.4746875 13.32773438 23.234375 14.01171875 C25.96072446 18.62600489 25.42460921 23.06415005 25.25 28.3125 C25.23195313 29.33923828 25.21390625 30.36597656 25.1953125 31.42382812 C25.14831063 33.95017885 25.08262272 36.47460469 25 39 C22.43556579 36.53117067 20.7545619 34.07159357 18.9375 31 C10.0882017 17.0254831 -2.13068196 5.92571855 -18.375 1.5859375 C-32.53296492 -0.70252666 -46.1453183 -0.03548064 -58.0859375 8.4453125 C-61.53878181 11.24986768 -64.66346949 14.50005905 -65.2734375 19.03125 C-65.64925503 28.16650698 -62.26280338 34.52479005 -56.5625 41.5 C-43.39537227 55.37164195 -25.12953575 63.0257315 -8.24755859 71.32763672 C3.36363534 77.05234417 14.63597859 82.95396788 22 94 C22.33 85.75 22.66 77.5 23 69 C45.44 69 67.88 69 91 69 C91 73.62 91 78.24 91 83 C90.34 83 89.68 83 89 83 C88.01 81.9171875 88.01 81.9171875 87 80.8125 C80.08917872 73.59315991 70.83895895 71.9128047 61.29296875 71.68359375 C60.56757401 71.66281265 59.84217926 71.64203156 59.09480286 71.62062073 C56.79245887 71.55557785 54.49000718 71.49645227 52.1875 71.4375 C50.62043186 71.39427165 49.05337435 71.35065602 47.48632812 71.30664062 C43.65766064 71.19994332 39.8288855 71.09855031 36 71 C36.06953551 75.51711924 36.1578073 80.03339432 36.26245117 84.54980469 C36.29542955 86.08193209 36.32354311 87.61417309 36.34643555 89.14648438 C36.51528811 103.64464503 36.51528811 103.64464503 41.8125 116.9375 C49.55865936 124.24102169 59.96151626 124.42637236 70 125 C70 128.96 70 132.92 70 137 C65.29356037 134.64678018 60.68121486 132.14490186 56.0625 129.625 C55.16853516 129.14289063 54.27457031 128.66078125 53.35351562 128.1640625 C45.4592524 123.85064176 41.64802597 121.13404545 37 113 C36.67 137.09 36.34 161.18 36 186 C61.50862112 187.53929652 61.50862112 187.53929652 85 177 C87.92808351 172.9212913 90.36157771 168.7663194 92 164 C94.43356163 171.3006849 91.14156843 179.38954379 90 187 C67.89 187 45.78 187 23 187 C22.67 170.17 22.34 153.34 22 136 C19.69 138.31 17.38 140.62 15 143 C11.7890625 145.14453125 11.7890625 145.14453125 8.625 146.8125 C7.06652344 147.65748047 7.06652344 147.65748047 5.4765625 148.51953125 C-10.25333641 155.21799382 -31.20209915 153.88710919 -47 148 C-60.4385183 142.38205002 -75.62413422 134.30477317 -84 122 C-84.45410156 118.77026367 -84.45410156 118.77026367 -84.390625 115.16796875 C-84.37773437 113.87568359 -84.36484375 112.58339844 -84.3515625 111.25195312 C-84.31814634 109.89712454 -84.28428662 108.54230683 -84.25 107.1875 C-84.22992034 105.81317683 -84.21167213 104.43882561 -84.1953125 103.06445312 C-84.14821732 99.70892144 -84.08245135 96.35481873 -84 93 C-81.76714312 95.88109303 -80.03727631 98.76218106 -78.40063477 102.02490234 C-67.28577052 124.0968533 -50.59043731 140.19459681 -27 148 C-26.01 148.33 -25.02 148.66 -24 149 C-10.55769337 150.38022124 1.2700377 148.84465319 12.625 141.0625 C16.61421158 137.72974096 18.61302494 134.78358195 19.34375 129.52734375 C19.81489995 121.15265339 17.36364607 115.2281685 12.19140625 108.7265625 C2.30184598 98.07051458 -10.81230721 91.2560285 -23.76806641 85.06689453 C-47.99019803 73.48838707 -47.99019803 73.48838707 -56 67 C-56.78503906 66.38769531 -57.57007813 65.77539062 -58.37890625 65.14453125 C-67.04205232 57.99422453 -72.09608712 49.5592714 -73.44140625 38.30859375 C-73.79572837 26.98171555 -71.60222523 18.65336439 -64.10546875 9.75 C-48.33646993 -5.15186447 -19.72315961 -7.21155175 0 0 Z " fill="#4F3C28" transform="translate(241,168)"/>
<path d="M0 0 C7.39114188 6.33778296 14.51628629 12.80014656 20.63769531 20.40429688 C21.38277344 21.30019531 22.12785156 22.19609375 22.89550781 23.11914062 C50.59761794 57.55138722 62.35008633 101.24871842 58.17675781 145.02929688 C53.56230488 184.30690689 35.38748817 217.82042206 7.63769531 245.40429688 C7.1053125 245.95375977 6.57292969 246.50322266 6.02441406 247.06933594 C-20.01827587 273.73973644 -60.52359422 289.73074113 -97.56542969 290.60742188 C-145.23486664 291.14208298 -185.47550263 275.46425077 -220.98339844 243.76757812 C-252.27612847 212.68038327 -269.47748966 170.32779945 -269.73730469 126.40429688 C-269.66895034 114.84231362 -268.76010076 103.71465573 -266.36230469 92.40429688 C-266.20133301 91.62860352 -266.04036133 90.85291016 -265.87451172 90.05371094 C-260.73670518 66.1957313 -249.75623692 43.32600524 -234.36230469 24.40429688 C-233.90984375 23.84500488 -233.45738281 23.28571289 -232.99121094 22.70947266 C-209.29553269 -6.38837072 -177.01479259 -26.27512074 -140.36230469 -34.59570312 C-139.66331055 -34.75941406 -138.96431641 -34.923125 -138.24414062 -35.09179688 C-90.45825586 -45.80433426 -37.15847786 -31.3352983 0 0 Z M-113.06103516 -33.46679688 C-145.45270284 -31.77820868 -174.25992107 -21.92150638 -200.36230469 -2.59570312 C-201.13574219 -2.03496094 -201.90917969 -1.47421875 -202.70605469 -0.89648438 C-230.21024009 19.68182825 -250.30598276 49.29675932 -259.36230469 82.40429688 C-259.85537109 83.99177734 -259.85537109 83.99177734 -260.35839844 85.61132812 C-268.99628408 114.81560816 -267.50324587 148.80945415 -257.36230469 177.40429688 C-256.93175781 178.62890625 -256.50121094 179.85351562 -256.05761719 181.11523438 C-248.75009609 200.47810102 -238.45150873 218.14949866 -224.31542969 233.29882812 C-222.72169745 235.01687148 -221.24771543 236.75295023 -219.79980469 238.59179688 C-201.40678269 259.81451456 -173.81937492 273.5183442 -147.36230469 281.40429688 C-146.38390625 281.70078125 -145.40550781 281.99726563 -144.39746094 282.30273438 C-129.7338141 286.36591224 -114.48307974 286.85745364 -99.36230469 286.40429688 C-98.27320801 286.37529297 -98.27320801 286.37529297 -97.16210938 286.34570312 C-75.22310847 285.6782078 -55.07030339 279.79189344 -35.36230469 270.40429688 C-34.75064453 270.11748047 -34.13898438 269.83066406 -33.50878906 269.53515625 C-25.21624418 265.5892944 -17.76961004 260.76504092 -10.36230469 255.34179688 C-9.57299561 254.76421631 -8.78368652 254.18663574 -7.97045898 253.59155273 C-3.02132176 249.87825239 1.37354546 245.88126012 5.63769531 241.40429688 C10.63769531 236.40429687 10.63769531 236.40429687 12.37207031 234.81054688 C18.32734719 229.1887655 22.90443754 222.83404382 27.48876953 216.09130859 C28.49456454 214.61446127 29.51965649 213.15079377 30.54785156 211.68945312 C38.98331503 199.21880213 44.32215249 184.74303593 48.63769531 170.40429688 C49.00765625 169.24027344 49.37761719 168.07625 49.75878906 166.87695312 C61.52222818 127.19150467 53.65334562 84.0794059 34.61376953 48.19677734 C25.55731551 31.56534027 12.53307859 15.19950282 -2.36230469 3.40429688 C-2.91515137 2.96617676 -3.46799805 2.52805664 -4.03759766 2.07666016 C-35.35647384 -22.5513283 -73.09241988 -35.37591836 -113.06103516 -33.46679688 Z " fill="#151110" transform="translate(355.3623046875,123.595703125)"/>
<path d="M0 0 C11.35587648 -1.13056292 20.32602955 3.14059949 29.0625 10.15625 C29.701875 10.7646875 30.34125 11.373125 31 12 C31.73734375 12.66386719 32.4746875 13.32773438 33.234375 14.01171875 C35.96072446 18.62600489 35.42460921 23.06415005 35.25 28.3125 C35.23195313 29.33923828 35.21390625 30.36597656 35.1953125 31.42382812 C35.14831063 33.95017885 35.08262272 36.47460469 35 39 C32.43556579 36.53117067 30.7545619 34.07159357 28.9375 31 C22.42500935 20.72353346 15.21389493 13.50800525 4.82617188 7.34741211 C2.9296875 6.19140625 2.9296875 6.19140625 0 4 C0 2.68 0 1.36 0 0 Z " fill="#4F3D2A" transform="translate(231,168)"/>
<path d="M0 0 C0.99 0 1.98 0 3 0 C3.23074219 0.53109375 3.46148437 1.0621875 3.69921875 1.609375 C6.19175715 7.00823288 8.37593307 10.49336543 14.0859375 12.8671875 C20.97274103 15.20736346 27.7658367 15.61520408 35 16 C35 19.96 35 23.92 35 28 C30.29356037 25.64678018 25.68121486 23.14490186 21.0625 20.625 C20.16853516 20.14289063 19.27457031 19.66078125 18.35351562 19.1640625 C10.4592524 14.85064176 6.64802597 12.13404545 2 4 C1.67 28.09 1.34 52.18 1 77 C0.67 77 0.34 77 0 77 C0 51.59 0 26.18 0 0 Z " fill="#5B4F44" transform="translate(276,277)"/>
<path d="M0 0 C0.99 1.32 1.98 2.64 3 4 C-4.39111841 12.8424653 -14.62961716 18.35798295 -26 20 C-29.85894839 20.30917494 -33.69211395 20.38088911 -37.5625 20.375 C-38.61300537 20.37411377 -39.66351074 20.37322754 -40.74584961 20.37231445 C-52.35221384 20.19741552 -62.39912903 17.71299869 -73 13 C-73 12.34 -73 11.68 -73 11 C-69.92382812 10.70703125 -69.92382812 10.70703125 -66.84765625 10.4140625 C-66.23792969 10.27742188 -65.62820312 10.14078125 -65 10 C-64.67 9.34 -64.34 8.68 -64 8 C-63.07058594 8.48210937 -62.14117187 8.96421875 -61.18359375 9.4609375 C-59.93506245 10.09928433 -58.68635505 10.73728678 -57.4375 11.375 C-56.82841797 11.69210937 -56.21933594 12.00921875 -55.59179688 12.3359375 C-44.598434 17.91986785 -32.1499226 18.92784971 -20.15234375 16.08984375 C-12.46462178 13.29349108 -5.26161787 9.81648015 -1 2.625 C-0.67 1.75875 -0.34 0.8925 0 0 Z " fill="#534537" transform="translate(260,300)"/>
<path d="M0 0 C22.44 0 44.88 0 68 0 C68 4.62 68 9.24 68 14 C67.34 14 66.68 14 66 14 C65.34 13.278125 64.68 12.55625 64 11.8125 C57.21521034 4.72481794 48.14438769 2.9421995 38.75 2.71875 C38.05543701 2.70034058 37.36087402 2.68193115 36.64526367 2.66296387 C34.43025718 2.60455674 32.21517205 2.55171796 30 2.5 C19.96861434 2.26121062 10.00035117 1.89568363 0 1 C0 0.67 0 0.34 0 0 Z " fill="#72675A" transform="translate(264,237)"/>
<path d="M0 0 C2.43356163 7.3006849 -0.85843157 15.38954379 -2 23 C-21.14 23 -40.28 23 -60 23 C-59.67 22.34 -59.34 21.68 -59 21 C-57.96705811 21.02094727 -56.93411621 21.04189453 -55.86987305 21.06347656 C-51.98785613 21.13661829 -48.10589832 21.1820652 -44.22338867 21.21972656 C-42.55238558 21.239675 -40.88145076 21.26684401 -39.21069336 21.30175781 C-28.11324606 21.52762624 -18.89137651 21.19475092 -9.125 15.25 C-4.97825314 10.85932686 -1.96432772 5.71440792 0 0 Z " fill="#4C3F32" transform="translate(333,332)"/>
<path d="M0 0 C0.93779297 -0.01224609 1.87558594 -0.02449219 2.84179688 -0.03710938 C8.89055442 -0.04971971 14.20535013 0.6676447 20.0625 2.1875 C17.0625 4.1875 17.0625 4.1875 14.875 3.8125 C14.276875 3.60625 13.67875 3.4 13.0625 3.1875 C13.0625 4.5075 13.0625 5.8275 13.0625 7.1875 C12.41667969 6.9709375 11.77085937 6.754375 11.10546875 6.53125 C-0.75359473 3.02706708 -16.47718802 1.58282188 -27.9375 7.1875 C-33.2381358 10.124795 -37.44233103 13.15445669 -40.9375 18.1875 C-41.5975 18.8475 -42.2575 19.5075 -42.9375 20.1875 C-43.5975 19.5275 -44.2575 18.8675 -44.9375 18.1875 C-37.54018684 8.39105825 -27.4442331 2.51262291 -15.3515625 0.62890625 C-10.23935159 0.03257074 -5.14162746 0.00351925 0 0 Z " fill="#524334" transform="translate(217.9375,164.8125)"/>
<path d="M0 0 C5.61 0.33 11.22 0.66 17 1 C17 4.96 17 8.92 17 13 C13.16867692 11.08433846 9.46067964 9.009395 5.75 6.875 C5.1003125 6.50246094 4.450625 6.12992187 3.78125 5.74609375 C2.18693776 4.83170879 0.5933921 3.91598744 -1 3 C-0.67 2.01 -0.34 1.02 0 0 Z " fill="#4D3D2B" transform="translate(294,292)"/>
<path d="M0 0 C1.32 0.33 2.64 0.66 4 1 C3.45380548 4.76543194 2.02518177 6.18817536 -0.875 8.5625 C-3.84566897 11.00852074 -3.84566897 11.00852074 -6.5703125 13.71484375 C-8 15 -8 15 -11 15 C-13.67398476 16.93897879 -13.67398476 16.93897879 -16 19 C-14.62736637 15.94839391 -13.04043427 13.75173068 -10.7421875 11.328125 C-10.11699219 10.66425781 -9.49179688 10.00039062 -8.84765625 9.31640625 C-8.19667969 8.63449219 -7.54570312 7.95257813 -6.875 7.25 C-6.21628906 6.55261719 -5.55757812 5.85523438 -4.87890625 5.13671875 C-3.25672226 3.42049511 -1.63034621 1.70846565 0 0 Z " fill="#1D1615" transform="translate(139,128)"/>
<path d="M0 0 C0.99 1.32 1.98 2.64 3 4 C-3.66040706 11.96826881 -13.40434916 18.06100339 -23.72265625 19.8671875 C-28.18788095 20.12759512 -32.58047798 19.61129837 -37 19 C-37 18.67 -37 18.34 -37 18 C-36.21238281 17.98582031 -35.42476562 17.97164063 -34.61328125 17.95703125 C-23.11510009 17.4535606 -11.30940731 14.50116287 -3 6 C-0.99409221 2.83324955 -0.99409221 2.83324955 0 0 Z " fill="#564B40" transform="translate(260,300)"/>
<path d="M0 0 C0 0.33 0 0.66 0 1 C-1.34191406 1.05607422 -1.34191406 1.05607422 -2.7109375 1.11328125 C-14.47059787 1.75266577 -23.69917675 3.4300048 -33 11 C-35.3909907 13.58860393 -35.3909907 13.58860393 -37 16 C-37.66 16.66 -38.32 17.32 -39 18 C-39.66 17.34 -40.32 16.68 -41 16 C-35.12265393 8.21648764 -27.04992042 2.20198696 -17.61328125 -0.64453125 C-11.77898199 -1.43813548 -5.82221901 -0.63668535 0 0 Z " fill="#60584E" transform="translate(214,167)"/>
<path d="M0 0 C1.19126781 3.57380342 0.7349445 5.50883302 0.0625 9.1875 C-0.13214844 10.27417969 -0.32679688 11.36085938 -0.52734375 12.48046875 C-0.68332031 13.31191406 -0.83929688 14.14335937 -1 15 C-1.66 15 -2.32 15 -3 15 C-3.33 15.99 -3.66 16.98 -4 18 C-5.32 18 -6.64 18 -8 18 C-6.443154 13.98696492 -4.68861143 10.0907072 -2.875 6.1875 C-2.33617187 5.02605469 -1.79734375 3.86460937 -1.2421875 2.66796875 C-0.62730469 1.34732422 -0.62730469 1.34732422 0 0 Z " fill="#554839" transform="translate(333,332)"/>
<path d="M0 0 C0.33 0.66 0.66 1.32 1 2 C2.11375 1.690625 2.11375 1.690625 3.25 1.375 C6.32330841 0.95591249 7.42786866 1.38050989 10 3 C9.34 4.32 8.68 5.64 8 7 C5.36 6.67 2.72 6.34 0 6 C-0.38218767 4.34385343 -0.71395102 2.67542976 -1 1 C-0.67 0.67 -0.34 0.34 0 0 Z " fill="#534533" transform="translate(197,311)"/>
<path d="M0 0 C0 0.66 0 1.32 0 2 C-8.22164814 5.02602327 -15.26851171 6.63715406 -24 5 C-24 4.67 -24 4.34 -24 4 C-23.16597656 3.96261719 -22.33195313 3.92523438 -21.47265625 3.88671875 C-15.17578215 3.51886013 -9.60567275 2.90832208 -3.70703125 0.62109375 C-2 0 -2 0 0 0 Z " fill="#675F57" transform="translate(247,314)"/>
<path d="M0 0 C0.763125 0.309375 1.52625 0.61875 2.3125 0.9375 C4.18789677 1.67893593 6.08684652 2.36228217 8 3 C8.6875 5.0625 8.6875 5.0625 9 7 C7.02 7.33 5.04 7.66 3 8 C1.58622659 5.36095629 0.62759865 2.92879371 0 0 Z M6 3 C7 5 7 5 7 5 Z " fill="#4C3723" transform="translate(164,292)"/>
<path d="M0 0 C0.99 0 1.98 0 3 0 C3 3.96 3 7.92 3 12 C1.68 11.34 0.36 10.68 -1 10 C-0.649375 8.906875 -0.29875 7.81375 0.0625 6.6875 C1.33039454 3.09079627 1.33039454 3.09079627 0 0 Z " fill="#504234" transform="translate(308,293)"/>
<path d="M0 0 C0.66 0.33 1.32 0.66 2 1 C0.44499019 4.81684226 -2.03595495 7.19195732 -5 10 C-5.66 8.68 -6.32 7.36 -7 6 C-4.69 4.02 -2.38 2.04 0 0 Z " fill="#0C0A0A" transform="translate(129,141)"/>
<path d="M0 0 C4.95 0.99 4.95 0.99 10 2 C9.01 3.32 8.02 4.64 7 6 C5.83054208 5.19152271 4.66449539 4.37810888 3.5 3.5625 C2.8503125 3.11003906 2.200625 2.65757812 1.53125 2.19140625 C1.0259375 1.79824219 0.520625 1.40507812 0 1 C0 0.67 0 0.34 0 0 Z " fill="#5C4F42" transform="translate(285,289)"/>
<path d="M0 0 C0.66 0 1.32 0 2 0 C1.67 0.66 1.34 1.32 1 2 C0.67 1.34 0.34 0.68 0 0 Z M-3 1 C-1.02 1.495 -1.02 1.495 1 2 C1 3.32 1 4.64 1 6 C1.66 6.33 2.32 6.66 3 7 C0 7 0 7 -2.1875 5 C-2.785625 4.34 -3.38375 3.68 -4 3 C-3.67 2.34 -3.34 1.68 -3 1 Z " fill="#554434" transform="translate(172,297)"/>
<path d="M0 0 C1.32695791 1.99043687 2.63966665 3.99045158 3.9375 6 C5.52483554 8.30885169 6.93736451 10.14362806 9 12 C8.01 12.33 7.02 12.66 6 13 C5.0165504 11.56542672 4.03839079 10.12722594 3.0625 8.6875 C2.51722656 7.88699219 1.97195313 7.08648437 1.41015625 6.26171875 C0 4 0 4 -1 1 C-0.67 0.67 -0.34 0.34 0 0 Z " fill="#726962" transform="translate(278,277)"/>
<path d="M0 0 C2.32472205 2.85306797 3.7508258 5.54074837 5 9 C4.01 9.66 3.02 10.32 2 11 C0.26378585 6.87649139 0 4.50048853 0 0 Z " fill="#554535" transform="translate(161,269)"/>
<path d="M0 0 C1.0528418 0.07831055 1.0528418 0.07831055 2.12695312 0.15820312 C3.85588054 0.28757865 5.58425355 0.42432531 7.3125 0.5625 C7.3125 0.8925 7.3125 1.2225 7.3125 1.5625 C-1.1025 2.0575 -1.1025 2.0575 -9.6875 2.5625 C-10.0175 1.9025 -10.3475 1.2425 -10.6875 0.5625 C-6.99441024 -0.66852992 -3.80699288 -0.30925152 0 0 Z " fill="#898175" transform="translate(206.6875,166.4375)"/>
<path d="M0 0 C2.475 0.495 2.475 0.495 5 1 C5.33 3.31 5.66 5.62 6 8 C3.33264727 5.51047079 1.44253657 3.36591866 0 0 Z " fill="#504433" transform="translate(256,192)"/>
<path d="M0 0 C0.33 0.66 0.66 1.32 1 2 C2.32 1.67 3.64 1.34 5 1 C4.67 2.32 4.34 3.64 4 5 C2.68 5 1.36 5 0 5 C-0.5625 3.0625 -0.5625 3.0625 -1 1 C-0.67 0.67 -0.34 0.34 0 0 Z " fill="#483A22" transform="translate(197,311)"/>
<path d="M0 0 C0.99 0 1.98 0 3 0 C3.66 1.32 4.32 2.64 5 4 C4.01 4.495 4.01 4.495 3 5 C0.375 3.5625 0.375 3.5625 -2 2 C-1.34 1.34 -0.68 0.68 0 0 Z " fill="#564738" transform="translate(180,306)"/>
<path d="M0 0 C1.5 1.25 1.5 1.25 3 3 C3 4.32 3 5.64 3 7 C2.01 7 1.02 7 0 7 C-1.125 2.25 -1.125 2.25 0 0 Z " fill="#4D371F" transform="translate(262,193)"/>
<path d="" fill="#FFFF00" transform="translate(0,0)"/>
<path d="" fill="#FFFF00" transform="translate(0,0)"/>
<path d="" fill="#FFFF00" transform="translate(0,0)"/>
<path d="" fill="#FFFF00" transform="translate(0,0)"/>
<path d="" fill="#FFFF00" transform="translate(0,0)"/>
<path d="" fill="#FFFF00" transform="translate(0,0)"/>
<path d="" fill="#FFFF00" transform="translate(0,0)"/>
<path d="" fill="#FFFF00" transform="translate(0,0)"/>
<path d="" fill="#FFFF00" transform="translate(0,0)"/>
<path d="" fill="#FFFF00" transform="translate(0,0)"/>
<path d="" fill="#FFFF00" transform="translate(0,0)"/>
<path d="" fill="#FFFF00" transform="translate(0,0)"/>
<path d="" fill="#FFFF00" transform="translate(0,0)"/>
<path d="" fill="#FFFF00" transform="translate(0,0)"/>
<path d="" fill="#FFFF00" transform="translate(0,0)"/>
<path d="" fill="#FFFF00" transform="translate(0,0)"/>
<path d="" fill="#FFFF00" transform="translate(0,0)"/>
<path d="" fill="#FFFF00" transform="translate(0,0)"/>
<path d="" fill="#FFFF00" transform="translate(0,0)"/>
<path d="" fill="#FFFF00" transform="translate(0,0)"/>
<path d="" fill="#FFFF00" transform="translate(0,0)"/>
<path d="" fill="#FFFF00" transform="translate(0,0)"/>
<path d="" fill="#FFFF00" transform="translate(0,0)"/>
<path d="" fill="#FFFF00" transform="translate(0,0)"/>
<path d="" fill="#FFFF00" transform="translate(0,0)"/>
<path d="" fill="#FFFF00" transform="translate(0,0)"/>
<path d="" fill="#FFFF00" transform="translate(0,0)"/>
<path d="" fill="#FFFF00" transform="translate(0,0)"/>
<path d="" fill="#FFFF00" transform="translate(0,0)"/>
<path d="" fill="#FFFF00" transform="translate(0,0)"/>
<path d="" fill="#FFFF00" transform="translate(0,0)"/>
<path d="" fill="#FFFF00" transform="translate(0,0)"/>
<path d="" fill="#FFFF00" transform="translate(0,0)"/>
<path d="" fill="#FFFF00" transform="translate(0,0)"/>
<path d="" fill="#FFFF00" transform="translate(0,0)"/>
<path d="" fill="#FFFF00" transform="translate(0,0)"/>
<path d="" fill="#FFFF00" transform="translate(0,0)"/>
<path d="" fill="#FFFF00" transform="translate(0,0)"/>
<path d="" fill="#FFFF00" transform="translate(0,0)"/>
<path d="" fill="#FFFF00" transform="translate(0,0)"/>
<path d="" fill="#FFFF00" transform="translate(0,0)"/>
<path d="" fill="#FFFF00" transform="translate(0,0)"/>
<path d="" fill="#FFFF00" transform="translate(0,0)"/>
<path d="" fill="#FFFF00" transform="translate(0,0)"/>
<path d="" fill="#FFFF00" transform="translate(0,0)"/>
<path d="" fill="#FFFF00" transform="translate(0,0)"/>
<path d="" fill="#FFFF00" transform="translate(0,0)"/>
<path d="" fill="#FFFF00" transform="translate(0,0)"/>
<path d="" fill="#FFFF00" transform="translate(0,0)"/>
<path d="" fill="#FFFF00" transform="translate(0,0)"/>
<path d="" fill="#FFFF00" transform="translate(0,0)"/>
<path d="" fill="#FFFF00" transform="translate(0,0)"/>
<path d="" fill="#FFFF00" transform="translate(0,0)"/>
<path d="" fill="#FFFF00" transform="translate(0,0)"/>
<path d="" fill="#FFFF00" transform="translate(0,0)"/>
<path d="" fill="#FFFF00" transform="translate(0,0)"/>
<path d="" fill="#FFFF00" transform="translate(0,0)"/>
<path d="" fill="#FFFF00" transform="translate(0,0)"/>
<path d="" fill="#FFFF00" transform="translate(0,0)"/>
<path d="" fill="#FFFF00" transform="translate(0,0)"/>
<path d="" fill="#FFFF00" transform="translate(0,0)"/>
<path d="" fill="#FFFF00" transform="translate(0,0)"/>
<path d="" fill="#FFFF00" transform="translate(0,0)"/>
<path d="" fill="#FFFF00" transform="translate(0,0)"/>
<path d="" fill="#FFFF00" transform="translate(0,0)"/>
<path d="" fill="#FFFF00" transform="translate(0,0)"/>
<path d="" fill="#FFFF00" transform="translate(0,0)"/>
<path d="" fill="#FFFF00" transform="translate(0,0)"/>
<path d="" fill="#FFFF00" transform="translate(0,0)"/>
<path d="" fill="#FFFF00" transform="translate(0,0)"/>
</svg>
